<svg width="28" height="30" viewBox="0 0 28 30" fill="none" xmlns="http://www.w3.org/2000/svg" aria-hidden="true">
  <path
    d="M14 2C8.48 2 4 6.48 4 12v14c0 1.25 1.45 1.95 2.43 1.17L8 26c.57-.45 1.38-.42 1.91.08l1.4 1.32c.55.52 1.42.52 1.97 0l1.4-1.32c.53-.5 1.34-.53 1.91-.08l1.57 1.17C20.55 27.95 22 27.25 22 26V12c0-5.52-4.48-10-8-10Z"
    fill="#b49cff"
  />
  <ellipse cx="10.6" cy="13" rx="1.7" ry="2.3" fill="#1a1030" />
  <ellipse cx="17.4" cy="13" rx="1.7" ry="2.3" fill="#1a1030" />
</svg>
